<?xml version="1.0" encoding="UTF-8" standalone="no"?>
<!DOCTYPE svg PUBLIC "-//W3C//DTD SVG 1.1//EN"
 "http://www.w3.org/Graphics/SVG/1.1/DTD/svg11.dtd">
<!-- Generated by graphviz version 2.47.0 (20210316.0004)
 -->
<!-- Title: dependencies Pages: 1 -->
<svg width="910pt" height="284pt"
 viewBox="0.00 0.00 910.00 284.00" xmlns="http://www.w3.org/2000/svg" xmlns:xlink="http://www.w3.org/1999/xlink">
<g id="graph0" class="graph" transform="scale(1 1) rotate(0) translate(4 280)">
<title>dependencies</title>
<polygon fill="white" stroke="transparent" points="-4,4 -4,-280 906,-280 906,4 -4,4"/>
<text text-anchor="start" x="430.01" y="-42.4" font-family="Times-12" font-weight="bold" font-size="14.00">Legend</text>
<polygon fill="#ffffb3" stroke="transparent" points="217,-10 217,-30 237,-30 237,-10 217,-10"/>
<text text-anchor="start" x="240.63" y="-15.4" font-family="Times-12" font-size="14.00"> &#160;Declarations</text>
<polygon fill="#8dd3c7" stroke="transparent" points="330,-10 330,-30 350,-30 350,-10 330,-10"/>
<text text-anchor="start" x="353.73" y="-15.4" font-family="Times-12" font-size="14.00"> &#160;Module</text>
<polygon fill="#80b1d3" stroke="transparent" points="416,-10 416,-30 436,-30 436,-10 416,-10"/>
<text text-anchor="start" x="439.78" y="-15.4" font-family="Times-12" font-size="14.00"> &#160;Bootstrap</text>
<polygon fill="#fdb462" stroke="transparent" points="513,-10 513,-30 533,-30 533,-10 513,-10"/>
<text text-anchor="start" x="536.67" y="-15.4" font-family="Times-12" font-size="14.00"> &#160;Providers</text>
<polygon fill="#fb8072" stroke="transparent" points="609,-10 609,-30 629,-30 629,-10 609,-10"/>
<text text-anchor="start" x="632.73" y="-15.4" font-family="Times-12" font-size="14.00"> &#160;Exports</text>
<g id="clust1" class="cluster">
<title>cluster_AccountModule</title>
<polygon fill="none" stroke="black" stroke-dasharray="1,5" points="8,-70 8,-268 894,-268 894,-70 8,-70"/>
</g>
<g id="clust4" class="cluster">
<title>cluster_AccountModule_exports</title>
<polygon fill="none" stroke="black" points="264,-208 264,-260 559,-260 559,-208 264,-208"/>
</g>
<g id="clust6" class="cluster">
<title>cluster_AccountModule_providers</title>
<polygon fill="none" stroke="black" points="16,-78 16,-130 886,-130 886,-78 16,-78"/>
</g>
<!-- AccountService  -->
<g id="node1" class="node">
<title>AccountService </title>
<polygon fill="#fb8072" stroke="black" points="551.4,-252 442.6,-252 442.6,-216 551.4,-216 551.4,-252"/>
<text text-anchor="middle" x="497" y="-229.8" font-family="Times,serif" font-size="14.00">AccountService </text>
</g>
<!-- TransactionsRepository  -->
<g id="node2" class="node">
<title>TransactionsRepository </title>
<polygon fill="#fb8072" stroke="black" points="424.47,-252 271.53,-252 271.53,-216 424.47,-216 424.47,-252"/>
<text text-anchor="middle" x="348" y="-229.8" font-family="Times,serif" font-size="14.00">TransactionsRepository </text>
</g>
<!-- AccountModule -->
<g id="node3" class="node">
<title>AccountModule</title>
<polygon fill="#8dd3c7" stroke="black" points="475.48,-187 472.48,-191 451.48,-191 448.48,-187 368.52,-187 368.52,-151 475.48,-151 475.48,-187"/>
<text text-anchor="middle" x="422" y="-164.8" font-family="Times,serif" font-size="14.00">AccountModule</text>
</g>
<!-- AccountModule&#45;&gt;AccountService  -->
<g id="edge1" class="edge">
<title>AccountModule&#45;&gt;AccountService </title>
<path fill="none" stroke="black" stroke-dasharray="5,2" d="M459.02,-187.11C459.02,-187.11 459.02,-205.99 459.02,-205.99"/>
<polygon fill="black" stroke="black" points="455.52,-205.99 459.02,-215.99 462.52,-205.99 455.52,-205.99"/>
</g>
<!-- AccountModule&#45;&gt;TransactionsRepository  -->
<g id="edge2" class="edge">
<title>AccountModule&#45;&gt;TransactionsRepository </title>
<path fill="none" stroke="black" stroke-dasharray="5,2" d="M396.37,-187.11C396.37,-187.11 396.37,-205.99 396.37,-205.99"/>
<polygon fill="black" stroke="black" points="392.87,-205.99 396.37,-215.99 399.87,-205.99 392.87,-205.99"/>
</g>
<!-- AccountRepository -->
<g id="node4" class="node">
<title>AccountRepository</title>
<ellipse fill="#fdb462" stroke="black" cx="792" cy="-104" rx="86.26" ry="18"/>
<text text-anchor="middle" x="792" y="-99.8" font-family="Times,serif" font-size="14.00">AccountRepository</text>
</g>
<!-- AccountRepository&#45;&gt;AccountModule -->
<g id="edge3" class="edge">
<title>AccountRepository&#45;&gt;AccountModule</title>
<path fill="none" stroke="black" d="M792,-122.28C792,-143.32 792,-175 792,-175 792,-175 485.8,-175 485.8,-175"/>
<polygon fill="black" stroke="black" points="485.8,-171.5 475.8,-175 485.8,-178.5 485.8,-171.5"/>
</g>
<!-- AccountService -->
<g id="node5" class="node">
<title>AccountService</title>
<ellipse fill="#fdb462" stroke="black" cx="615" cy="-104" rx="72.91" ry="18"/>
<text text-anchor="middle" x="615" y="-99.8" font-family="Times,serif" font-size="14.00">AccountService</text>
</g>
<!-- AccountService&#45;&gt;AccountModule -->
<g id="edge4" class="edge">
<title>AccountService&#45;&gt;AccountModule</title>
<path fill="none" stroke="black" d="M546.87,-110.31C546.87,-125.53 546.87,-163 546.87,-163 546.87,-163 485.68,-163 485.68,-163"/>
<polygon fill="black" stroke="black" points="485.68,-159.5 475.68,-163 485.68,-166.5 485.68,-159.5"/>
</g>
<!-- TransactionsRepository -->
<g id="node6" class="node">
<title>TransactionsRepository</title>
<ellipse fill="#fdb462" stroke="black" cx="422" cy="-104" rx="102.51" ry="18"/>
<text text-anchor="middle" x="422" y="-99.8" font-family="Times,serif" font-size="14.00">TransactionsRepository</text>
</g>
<!-- TransactionsRepository&#45;&gt;AccountModule -->
<g id="edge5" class="edge">
<title>TransactionsRepository&#45;&gt;AccountModule</title>
<path fill="none" stroke="black" d="M422,-122.11C422,-122.11 422,-140.99 422,-140.99"/>
<polygon fill="black" stroke="black" points="418.5,-140.99 422,-150.99 425.5,-140.99 418.5,-140.99"/>
</g>
<!-- UserRepository -->
<g id="node7" class="node">
<title>UserRepository</title>
<ellipse fill="#fdb462" stroke="black" cx="230" cy="-104" rx="71.79" ry="18"/>
<text text-anchor="middle" x="230" y="-99.8" font-family="Times,serif" font-size="14.00">UserRepository</text>
</g>
<!-- UserRepository&#45;&gt;AccountModule -->
<g id="edge6" class="edge">
<title>UserRepository&#45;&gt;AccountModule</title>
<path fill="none" stroke="black" d="M286.71,-115.1C286.71,-132.19 286.71,-163 286.71,-163 286.71,-163 358.14,-163 358.14,-163"/>
<polygon fill="black" stroke="black" points="358.14,-166.5 368.14,-163 358.14,-159.5 358.14,-166.5"/>
</g>
<!-- UserService -->
<g id="node8" class="node">
<title>UserService</title>
<ellipse fill="#fdb462" stroke="black" cx="82" cy="-104" rx="58.44" ry="18"/>
<text text-anchor="middle" x="82" y="-99.8" font-family="Times,serif" font-size="14.00">UserService</text>
</g>
<!-- UserService&#45;&gt;AccountModule -->
<g id="edge7" class="edge">
<title>UserService&#45;&gt;AccountModule</title>
<path fill="none" stroke="black" d="M82,-122.28C82,-143.32 82,-175 82,-175 82,-175 358.5,-175 358.5,-175"/>
<polygon fill="black" stroke="black" points="358.5,-178.5 368.5,-175 358.5,-171.5 358.5,-178.5"/>
</g>
</g>
</svg>
